<svg width="87" height="55" viewBox="0 0 87 55" fill="none" xmlns="http://www.w3.org/2000/svg">
<g clip-path="url(#clip0_2_4)">
<mask id="mask0_2_4" style="mask-type:luminance" maskUnits="userSpaceOnUse" x="0" y="0" width="88" height="55">
<path d="M0 0.000102997H87.0004V55H0V0.000102997Z" fill="white"/>
</mask>
<g mask="url(#mask0_2_4)">
<path d="M19.6801 52.4768C18.8903 52.4768 18.5202 52.297 18.5202 51.3557V50.205H19.7856V50.9443C19.7856 51.251 19.8489 51.2616 20.1125 51.2616H22.1666C22.4302 51.2616 22.4945 51.251 22.4945 50.9443V49.5905C22.4945 49.2838 22.4302 49.2743 22.1666 49.2743H19.6696C18.8787 49.2743 18.5107 49.0945 18.5107 48.1532V45.966C18.5107 45.0248 18.8787 44.845 19.6696 44.845H22.5894C23.3792 44.845 23.7483 45.0248 23.7483 45.966V47.1178H22.4829V46.3775C22.4829 46.0707 22.4207 46.0612 22.1571 46.0612H20.1019C19.8383 46.0612 19.775 46.0707 19.775 46.3775V47.7407C19.775 48.0485 19.8383 48.058 20.1019 48.058H22.5999C23.3908 48.058 23.7588 48.2378 23.7588 49.1791V51.3557C23.7588 52.297 23.3908 52.4768 22.5999 52.4768H19.6801Z" fill="black"/>
<path d="M28.536 48.1956C28.536 47.8889 28.4728 47.8784 28.2091 47.8784H26.5125C26.2489 47.8784 26.1856 47.8889 26.1856 48.1956V50.9444C26.1856 51.2511 26.2489 51.2607 26.5125 51.2607H28.2091C28.4728 51.2607 28.536 51.2511 28.536 50.9444V48.1956ZM26.0802 52.4769C25.2904 52.4769 24.9213 52.2971 24.9213 51.3558V47.7832C24.9213 46.8429 25.2904 46.6631 26.0802 46.6631H28.6415C29.4323 46.6631 29.8003 46.8429 29.8003 47.7832V51.3558C29.8003 52.2971 29.4323 52.4769 28.6415 52.4769H26.0802Z" fill="black"/>
<path d="M32.1124 52.4768C31.3215 52.4768 30.9525 52.297 30.9525 51.3557V44.02H32.2178V50.9443C32.2178 51.251 32.28 51.2616 32.5436 51.2616H33.2396V52.4768H32.1124Z" fill="black"/>
<path d="M37.4568 50.0558H35.4333C35.1697 50.0558 35.1064 50.0674 35.1064 50.3731V50.9442C35.1064 51.2509 35.1697 51.2615 35.4333 51.2615H37.1299C37.3935 51.2615 37.4568 51.2509 37.4568 50.9442V50.0558ZM35.001 52.4767C34.2112 52.4767 33.8421 52.2969 33.8421 51.3556V49.9606C33.8421 49.0204 34.2112 48.8406 35.001 48.8406H37.4568V48.1954C37.4568 47.8887 37.3935 47.8781 37.1299 47.8781H33.9581V46.6629H37.5622C38.3531 46.6629 38.7211 46.8427 38.7211 47.784V51.3556C38.7211 52.2969 38.3531 52.4767 37.5622 52.4767H35.001Z" fill="black"/>
<path d="M39.8735 52.4768V47.7841C39.8735 46.8428 40.2425 46.663 41.0334 46.663H43.4038V47.8782H41.4647C41.201 47.8782 41.1378 47.8888 41.1378 48.1955V52.4768H39.8735Z" fill="black"/>
<path d="M48.1383 46.3779C48.1383 46.0712 48.075 46.0606 47.8114 46.0606H45.5242V48.3334H47.8114C48.1077 48.3334 48.1383 48.3229 48.1383 48.0267V46.3779ZM48.055 52.4772L46.4205 49.5487H45.5242V52.4772H44.2599V44.8454H48.2448C49.0345 44.8454 49.4036 45.0252 49.4036 45.9654V48.4276C49.4036 49.3689 49.0345 49.5487 48.2448 49.5487H47.7386L49.372 52.4772H48.055Z" fill="black"/>
<path d="M54.1067 48.1956C54.1067 47.8889 54.0434 47.8784 53.7798 47.8784H52.0832C51.8196 47.8784 51.7563 47.8889 51.7563 48.1956V49.01H53.7798C54.0434 49.01 54.1067 48.9994 54.1067 48.6927V48.1956ZM51.6509 52.4769C50.8611 52.4769 50.492 52.2971 50.492 51.3558V47.7832C50.492 46.8429 50.8611 46.6631 51.6509 46.6631H54.2121C55.003 46.6631 55.371 46.8429 55.371 47.7832V49.1041C55.371 50.0454 55.003 50.2252 54.2121 50.2252H51.7563V50.9444C51.7563 51.2511 51.8196 51.2607 52.0832 51.2607H55.139V52.4769H51.6509Z" fill="black"/>
<path d="M60.0009 48.1956C60.0009 47.8889 59.9377 47.8784 59.674 47.8784H57.9774C57.7138 47.8784 57.6505 47.8889 57.6505 48.1956V50.9444C57.6505 51.2511 57.7138 51.2607 57.9774 51.2607H60.0009V48.1956ZM56.6604 54.5911V53.3749H59.674C59.9377 53.3749 60.0009 53.3653 60.0009 53.0586V52.4769H57.5451C56.7553 52.4769 56.3862 52.2971 56.3862 51.3558V47.7832C56.3862 46.8429 56.7553 46.6631 57.5451 46.6631H60.1064C60.8972 46.6631 61.2652 46.8429 61.2652 47.7832V53.47C61.2652 54.4113 60.8972 54.5911 60.1064 54.5911H56.6604Z" fill="black"/>
<path d="M62.9018 44.8446H64.1671V46.0599H62.9018V44.8446ZM62.9018 52.4765V47.879H61.9644V46.6627H64.1671V52.4765H62.9018Z" fill="black"/>
<path d="M68.9526 52.4768V48.1955C68.9526 47.8888 68.8893 47.8782 68.6257 47.8782H66.9291C66.6655 47.8782 66.6022 47.8888 66.6022 48.1955V52.4768H65.3379V47.7841C65.3379 46.8428 65.707 46.663 66.4978 46.663H69.0591C69.8489 46.663 70.2169 46.8428 70.2169 47.7841V52.4768H68.9526Z" fill="black"/>
<path d="M74.8901 50.0558H72.8666C72.603 50.0558 72.5398 50.0674 72.5398 50.3731V50.9442C72.5398 51.2509 72.603 51.2615 72.8666 51.2615H74.5633C74.8269 51.2615 74.8901 51.2509 74.8901 50.9442V50.0558ZM72.4343 52.4767C71.6445 52.4767 71.2755 52.2969 71.2755 51.3556V49.9606C71.2755 49.0204 71.6445 48.8406 72.4343 48.8406H74.8901V48.1954C74.8901 47.8887 74.8269 47.8781 74.5633 47.8781H71.3914V46.6629H74.9956C75.7864 46.6629 76.1544 46.8427 76.1544 47.784V51.3556C76.1544 52.2969 75.7864 52.4767 74.9956 52.4767H72.4343Z" fill="black"/>
<path d="M6.97474 38.5925L41.1361 11.4188L37.5878 6.93233L26.0573 16.1041L27.8204 1.5363L22.0208 0.899612L20.2578 15.4674L11.22 4.0376L6.62255 7.69488L15.6603 19.1247L1.11615 17.5277L0.413879 23.3372L14.9581 24.9332L3.42753 34.106L6.97474 38.5925Z" fill="#F69800"/>
<path d="M11.2451 48.3492L6.65399 42.5534L46.191 11.0466L86.8089 42.4222L82.3042 48.2878L46.2617 20.4457L11.2451 48.3492Z" fill="black"/>
</g>
</g>
<defs>
<clipPath id="clip0_2_4">
<rect width="87" height="55" fill="white"/>
</clipPath>
</defs>
</svg>
